<?xml version="1.0" standalone="no"?>
<!DOCTYPE svg PUBLIC "-//W3C//DTD SVG 20010904//EN"
 "http://www.w3.org/TR/2001/REC-SVG-20010904/DTD/svg10.dtd">
<svg version="1.0" xmlns="http://www.w3.org/2000/svg"
 width="448.000000pt" height="448.000000pt" viewBox="0 0 448.000000 448.000000"
 preserveAspectRatio="xMidYMid meet">
<metadata>
Created by potrace 1.15, written by Peter Selinger 2001-2017
</metadata>
<g transform="translate(0.000000,448.000000) scale(0.100000,-0.100000)"
fill="#000000" stroke="none">
<path d="M1543 3910 c-72 -3 -135 -9 -139 -13 -4 -4 -7 -26 -5 -49 1 -30 -5
-50 -24 -78 -36 -53 -47 -193 -20 -268 17 -47 17 -51 2 -67 -21 -20 -21 -25
-3 -60 12 -23 12 -31 0 -53 -9 -18 -10 -28 -3 -33 8 -4 6 -14 -4 -30 -11 -18
-15 -57 -16 -148 -1 -69 -4 -127 -6 -131 -2 -3 1 -26 6 -49 8 -35 7 -47 -6
-61 -12 -13 -14 -28 -9 -59 4 -22 9 -41 13 -41 16 0 33 -48 37 -104 3 -34 14
-108 26 -166 11 -58 20 -112 21 -120 0 -8 6 -22 13 -31 8 -8 12 -25 9 -37 -2
-12 0 -22 5 -22 5 0 12 -21 16 -47 3 -27 11 -54 17 -61 5 -7 7 -15 5 -18 -3
-3 5 -44 18 -91 13 -47 21 -90 18 -94 -3 -5 -1 -9 3 -9 5 0 19 -37 31 -82 17
-62 21 -101 18 -155 -2 -40 0 -73 5 -73 9 0 5 -53 -6 -70 -3 -5 -1 -10 5 -10
7 0 10 -21 8 -60 -2 -33 -7 -60 -12 -60 -4 0 -5 -11 -2 -25 8 -33 -13 -145
-32 -167 -8 -9 -11 -21 -8 -27 4 -5 2 -36 -4 -68 -5 -32 -12 -74 -15 -93 -6
-36 -7 -130 -3 -152 2 -7 -1 -12 -7 -13 -5 0 -16 -4 -23 -9 -15 -9 2 -36 24
-36 7 0 16 -16 19 -37 4 -21 13 -58 22 -82 13 -36 13 -45 2 -52 -11 -7 -11 -9
3 -9 10 0 22 -14 29 -33 6 -18 29 -45 50 -61 21 -16 36 -33 33 -38 -10 -15 26
-40 49 -34 25 6 97 -13 97 -26 0 -4 15 -8 33 -8 19 0 37 -3 41 -7 3 -4 36 -8
72 -9 51 -2 64 1 60 11 -6 17 25 45 51 45 12 0 31 -11 44 -25 27 -27 49 -32
49 -11 0 45 349 -45 365 -94 5 -15 19 -19 78 -23 40 -2 128 -13 197 -25 274
-46 494 2 552 119 53 110 66 146 64 189 -1 25 3 56 10 70 13 29 12 33 -31 125
-29 60 -119 175 -138 175 -6 0 -129 71 -137 80 -3 3 -18 6 -35 8 -16 2 -32 7
-35 10 -3 4 -32 18 -65 30 -33 13 -69 27 -80 32 -104 40 -175 85 -175 110 0 5
-12 15 -27 22 -67 32 -123 249 -77 299 10 11 19 29 21 41 2 12 8 27 14 34 12
14 -2 49 -23 57 -10 4 -10 7 -1 14 7 5 12 25 11 44 -4 75 2 107 26 130 13 13
22 28 20 34 -3 6 4 20 16 30 19 17 19 19 2 31 -15 11 -15 13 -1 19 11 4 14 15
11 36 -3 22 2 40 19 62 14 20 23 46 24 72 1 47 23 123 42 146 15 18 18 75 3
84 -11 7 -5 72 9 89 12 14 52 242 50 288 -1 18 4 76 11 128 10 82 10 139 -3
296 -1 17 -7 37 -13 45 -17 22 -26 52 -16 58 4 3 17 22 29 42 19 33 20 47 15
198 -4 144 -7 164 -23 174 -12 8 -19 23 -19 44 0 28 -6 36 -42 55 -41 22 -55
23 -278 25 -129 2 -327 5 -439 9 -137 3 -207 2 -214 -5 -13 -13 -124 -15 -129
-3 -5 15 -58 18 -195 12z"/>
</g>
</svg>
