<?xml version="1.0" standalone="no"?>
<!DOCTYPE svg PUBLIC "-//W3C//DTD SVG 20010904//EN"
 "http://www.w3.org/TR/2001/REC-SVG-20010904/DTD/svg10.dtd">
<svg version="1.0" xmlns="http://www.w3.org/2000/svg"
 width="448.000000pt" height="448.000000pt" viewBox="0 0 448.000000 448.000000"
 preserveAspectRatio="xMidYMid meet">
<metadata>
Created by potrace 1.15, written by Peter Selinger 2001-2017
</metadata>
<g transform="translate(0.000000,448.000000) scale(0.100000,-0.100000)"
fill="#000000" stroke="none">
<path d="M2246 3185 c-5 -14 -133 -41 -143 -31 -3 3 -12 1 -18 -4 -15 -13
-106 -40 -115 -35 -3 2 -13 -5 -20 -16 -8 -10 -22 -19 -31 -19 -10 0 -19 -3
-21 -8 -1 -4 -27 -28 -57 -52 -29 -25 -76 -74 -105 -110 -28 -36 -54 -66 -58
-68 -5 -2 -8 -15 -8 -29 0 -14 -9 -42 -19 -62 -16 -30 -27 -54 -36 -81 -4 -12
-17 -47 -26 -67 -5 -15 -5 -23 1 -23 6 0 10 -20 10 -45 0 -25 -4 -45 -9 -45
-11 0 -20 -46 -14 -71 3 -10 12 -19 19 -19 9 0 15 -12 16 -32 0 -18 2 -37 3
-43 12 -65 19 -92 28 -103 5 -7 7 -15 4 -19 -4 -3 3 -17 13 -31 11 -13 20 -32
20 -41 0 -10 4 -21 9 -26 5 -6 24 -37 42 -70 18 -33 50 -80 70 -104 21 -24 36
-48 32 -54 -3 -6 -1 -7 5 -3 7 4 22 -3 34 -17 13 -13 44 -38 71 -56 26 -17 47
-38 47 -46 0 -9 9 -15 21 -15 15 0 19 -5 15 -16 -4 -12 -1 -14 13 -9 11 3 22
1 26 -5 3 -5 14 -10 24 -10 10 0 28 -11 40 -24 19 -21 27 -23 56 -15 21 6 43
6 60 -1 14 -5 38 -10 52 -10 36 0 93 -37 86 -56 -3 -9 6 -19 28 -29 36 -16 71
-36 79 -46 3 -3 27 -14 53 -25 26 -10 57 -27 68 -37 10 -10 24 -15 29 -12 6 3
10 2 10 -3 0 -5 21 -15 48 -22 26 -7 55 -22 65 -33 15 -17 22 -19 38 -9 10 7
38 12 62 12 70 0 108 19 172 86 69 71 78 82 95 113 25 48 19 150 -14 221 -20
44 -96 117 -167 162 -42 26 -69 50 -69 61 0 14 -3 15 -19 5 -15 -9 -23 -9 -35
2 -14 11 -15 15 -2 29 22 25 58 141 60 191 0 25 6 51 13 58 14 15 16 36 13
130 -1 34 3 68 8 75 16 20 9 62 -11 61 -11 -1 -17 5 -17 18 0 32 -30 139 -51
182 -10 22 -19 44 -19 49 0 6 -21 35 -47 65 -54 63 -73 95 -73 123 0 16 -5 18
-25 13 -17 -4 -27 -1 -31 9 -3 9 -23 22 -44 31 -21 8 -42 21 -47 28 -4 7 -17
14 -28 15 -45 4 -155 41 -180 61 -29 23 -91 27 -99 7z"/>
</g>
</svg>
