<?xml version="1.0" standalone="no"?>
<!DOCTYPE svg PUBLIC "-//W3C//DTD SVG 20010904//EN"
 "http://www.w3.org/TR/2001/REC-SVG-20010904/DTD/svg10.dtd">
<svg version="1.0" xmlns="http://www.w3.org/2000/svg"
 width="448.000000pt" height="448.000000pt" viewBox="0 0 448.000000 448.000000"
 preserveAspectRatio="xMidYMid meet">
<metadata>
Created by potrace 1.15, written by Peter Selinger 2001-2017
</metadata>
<g transform="translate(0.000000,448.000000) scale(0.100000,-0.100000)"
fill="#000000" stroke="none">
<path d="M2024 3238 c-21 -3 -61 -8 -89 -10 -27 -1 -53 -7 -56 -11 -3 -5 -20
-9 -37 -9 -19 -1 -29 -5 -25 -11 4 -6 0 -8 -10 -4 -10 3 -17 2 -17 -3 0 -5 -7
-7 -15 -4 -9 4 -18 -1 -21 -11 -4 -9 -12 -14 -20 -11 -22 8 -127 -68 -158
-114 -21 -33 -27 -51 -23 -75 3 -18 1 -37 -4 -42 -5 -5 -2 -20 6 -37 8 -16 15
-39 15 -52 0 -29 16 -98 41 -179 10 -34 21 -83 23 -110 6 -64 14 -103 27 -137
6 -15 8 -32 4 -37 -3 -6 -2 -11 3 -11 6 0 18 -33 27 -72 10 -40 20 -77 24 -83
3 -5 6 -12 6 -15 1 -10 47 -126 66 -165 10 -22 19 -51 19 -64 0 -13 9 -51 19
-85 11 -33 25 -81 31 -106 17 -63 51 -149 61 -156 5 -3 9 -14 9 -25 0 -10 4
-19 10 -19 14 0 58 -46 65 -69 3 -11 16 -23 28 -26 12 -3 31 -10 42 -14 27
-12 135 -31 169 -31 22 0 27 -4 22 -16 -6 -17 7 -17 102 -1 17 4 32 2 32 -3 0
-14 61 0 99 23 19 11 40 36 48 56 8 20 26 60 39 89 13 29 24 65 24 80 0 15 5
43 10 62 11 38 14 56 30 200 6 52 24 138 40 190 49 161 90 352 89 415 0 33 7
87 16 120 19 73 34 279 25 358 -5 51 -10 61 -45 90 -42 34 -51 40 -114 75 -43
23 -127 48 -202 59 -60 8 -386 10 -435 1z"/>
</g>
</svg>
