<?xml version="1.0" standalone="no"?>
<!DOCTYPE svg PUBLIC "-//W3C//DTD SVG 20010904//EN"
 "http://www.w3.org/TR/2001/REC-SVG-20010904/DTD/svg10.dtd">
<svg version="1.0" xmlns="http://www.w3.org/2000/svg"
 width="448.000000pt" height="448.000000pt" viewBox="0 0 448.000000 448.000000"
 preserveAspectRatio="xMidYMid meet">
<metadata>
Created by potrace 1.15, written by Peter Selinger 2001-2017
</metadata>
<g transform="translate(0.000000,448.000000) scale(0.100000,-0.100000)"
fill="#000000" stroke="none">
<path d="M1925 3029 c-93 -18 -105 -22 -105 -29 0 -5 -9 -12 -20 -15 -11 -4
-18 -11 -15 -16 4 -5 2 -9 -3 -9 -6 0 -35 -20 -65 -44 -63 -52 -125 -89 -136
-81 -16 9 -59 -35 -82 -82 -23 -47 -25 -82 -16 -233 2 -44 19 -116 37 -155 12
-27 18 -52 25 -105 6 -44 74 -263 101 -327 8 -17 14 -36 14 -42 0 -7 11 -34
25 -61 14 -27 25 -57 25 -66 0 -30 36 -132 51 -144 4 -3 11 -32 18 -65 12 -63
13 -68 26 -100 9 -22 55 -79 68 -82 4 -2 30 -19 58 -39 28 -19 57 -33 65 -30
8 3 14 2 14 -2 0 -4 46 -8 102 -10 56 -2 111 -8 122 -15 12 -6 26 -12 31 -13
6 -1 27 -10 49 -19 32 -14 44 -14 68 -4 21 9 26 14 16 20 -11 7 -10 9 1 9 28
0 81 96 101 182 7 29 16 62 21 73 7 19 37 145 61 260 6 28 14 55 17 60 4 6 13
30 20 55 7 25 26 86 42 135 16 50 29 101 29 112 0 12 4 24 9 27 5 3 15 30 21
58 7 29 16 58 20 63 4 6 8 46 9 90 1 44 6 82 10 85 4 3 8 21 8 40 0 61 11 154
21 180 14 37 -29 130 -60 130 -5 0 -16 6 -23 13 -36 31 -45 37 -63 37 -10 0
-33 11 -52 25 -19 14 -39 25 -46 25 -7 0 -19 7 -28 15 -8 9 -32 23 -52 31 -25
11 -33 18 -25 23 10 6 9 10 -4 15 -25 9 -37 7 -29 -5 5 -9 -1 -10 -22 -5 -91
23 -226 37 -295 32 -43 -4 -88 -3 -100 2 -13 4 -42 5 -64 1z"/>
</g>
</svg>
