<?xml version="1.0" standalone="no"?>
<!DOCTYPE svg PUBLIC "-//W3C//DTD SVG 20010904//EN"
 "http://www.w3.org/TR/2001/REC-SVG-20010904/DTD/svg10.dtd">
<svg version="1.0" xmlns="http://www.w3.org/2000/svg"
 width="448.000000pt" height="448.000000pt" viewBox="0 0 448.000000 448.000000"
 preserveAspectRatio="xMidYMid meet">
<metadata>
Created by potrace 1.15, written by Peter Selinger 2001-2017
</metadata>
<g transform="translate(0.000000,448.000000) scale(0.100000,-0.100000)"
fill="#000000" stroke="none">
<path d="M2355 3269 c-118 -8 -192 -17 -220 -29 -11 -4 -39 -13 -63 -21 -23
-7 -46 -17 -50 -23 -11 -15 -33 -175 -28 -203 18 -89 17 -110 -2 -149 -16 -31
-21 -59 -21 -139 0 -100 -1 -112 -14 -150 -4 -11 0 -54 9 -95 8 -41 18 -88 21
-105 7 -34 24 -50 35 -32 5 8 8 4 8 -10 0 -16 -4 -21 -15 -17 -10 4 -15 0 -15
-12 0 -27 25 -69 38 -67 7 2 12 -4 12 -12 0 -9 -6 -12 -16 -8 -13 5 -15 2 -10
-14 4 -12 1 -25 -9 -33 -8 -7 -15 -19 -15 -27 0 -15 29 -84 40 -93 3 -3 17
-27 30 -53 14 -27 32 -53 41 -58 9 -4 20 -25 24 -46 3 -21 12 -56 20 -78 7
-22 13 -79 14 -126 1 -47 5 -99 10 -115 4 -16 9 -62 10 -103 1 -41 5 -79 8
-84 6 -10 5 -73 -1 -147 -3 -25 0 -74 7 -110 6 -36 10 -83 9 -105 -1 -22 2
-52 8 -68 31 -86 31 -85 52 -79 14 3 19 1 15 -6 -4 -5 -4 -17 -1 -26 5 -13 9
-14 20 -5 9 7 14 8 14 1 0 -5 20 -16 45 -23 26 -8 47 -21 51 -31 3 -10 10 -18
15 -18 5 0 9 -7 9 -15 0 -17 49 -65 67 -65 7 0 17 -9 23 -20 9 -17 37 -33 172
-95 21 -9 44 -15 53 -12 8 4 16 3 19 -1 5 -8 331 -7 363 1 25 6 72 55 73 75 0
6 5 12 10 12 6 0 9 3 9 8 -3 20 2 32 16 32 17 0 38 70 28 96 -4 12 -3 15 5 10
8 -5 12 0 12 13 0 12 -5 21 -11 21 -5 0 -8 4 -5 9 4 5 2 11 -4 13 -5 1 -11 20
-12 40 -2 21 -9 40 -15 43 -7 2 -13 11 -13 19 0 8 -3 16 -7 18 -9 3 -87 107
-94 123 -2 5 -21 28 -42 50 -38 39 -107 137 -107 151 0 4 -11 30 -24 58 -13
28 -28 65 -34 81 -15 40 -22 301 -10 340 5 16 12 75 15 130 4 94 12 163 49
415 8 58 17 166 19 240 2 74 9 158 15 185 14 63 6 129 -18 153 -16 16 -20 40
-24 164 -6 180 -13 198 -84 214 -61 13 -390 21 -529 13z"/>
</g>
</svg>
