<?xml version="1.0" standalone="no"?>
<!DOCTYPE svg PUBLIC "-//W3C//DTD SVG 20010904//EN"
 "http://www.w3.org/TR/2001/REC-SVG-20010904/DTD/svg10.dtd">
<svg version="1.0" xmlns="http://www.w3.org/2000/svg"
 width="448.000000pt" height="448.000000pt" viewBox="0 0 448.000000 448.000000"
 preserveAspectRatio="xMidYMid meet">
<metadata>
Created by potrace 1.15, written by Peter Selinger 2001-2017
</metadata>
<g transform="translate(0.000000,448.000000) scale(0.100000,-0.100000)"
fill="#000000" stroke="none">
<path d="M1788 3144 c-53 -6 -110 -17 -126 -23 -32 -13 -36 -24 -46 -131 -4
-30 -9 -77 -12 -105 -13 -116 -14 -135 -1 -135 8 0 7 -4 -3 -10 -12 -8 -12
-10 -1 -10 9 0 10 -4 4 -12 -6 -7 -8 -24 -6 -38 3 -14 6 -113 8 -221 2 -119 7
-205 14 -217 6 -11 11 -32 11 -46 0 -15 4 -34 10 -44 14 -25 60 -208 69 -277
4 -33 16 -91 25 -130 15 -60 17 -99 11 -265 -9 -287 -9 -294 -19 -308 -10 -17
2 -85 14 -77 16 10 23 -80 8 -111 -19 -39 -13 -77 12 -69 12 4 19 -1 23 -14 6
-25 68 -38 119 -24 41 11 60 1 31 -16 -17 -10 -17 -10 0 -11 9 0 17 -5 17 -11
0 -5 -4 -8 -8 -5 -5 3 -9 -1 -9 -7 0 -7 11 -14 24 -15 14 -1 22 2 18 8 -4 7 8
10 34 8 23 -2 41 -7 41 -11 0 -5 4 -5 10 -2 12 7 61 -17 120 -61 25 -18 58
-36 73 -39 15 -4 30 -11 32 -16 3 -4 13 -5 21 -2 9 3 20 0 24 -7 4 -7 23 -14
42 -15 18 -2 41 -6 50 -10 11 -4 34 1 58 14 50 26 50 26 50 1 0 -16 7 -20 34
-20 19 0 42 3 52 7 16 6 16 7 -2 14 -18 7 -18 8 3 8 12 1 29 -2 39 -6 16 -6
16 -7 -2 -14 -15 -6 -12 -8 13 -8 23 -1 36 5 43 19 6 11 15 18 21 14 5 -3 16
0 24 6 8 6 19 9 25 5 5 -3 10 1 10 10 0 9 5 15 12 13 11 -4 48 25 48 38 0 3
-9 2 -20 -1 -15 -5 -20 -2 -21 12 0 10 -3 13 -6 6 -2 -7 -14 -13 -26 -13 -16
0 -18 3 -9 9 10 6 8 10 -10 15 -21 6 -22 7 -5 20 9 7 17 17 17 21 0 4 -8 14
-17 22 -16 13 -16 14 9 10 15 -2 25 0 22 4 -3 5 -12 9 -21 9 -9 0 -13 3 -10 7
4 3 2 12 -4 20 -9 10 -7 13 10 13 11 0 21 5 21 11 0 7 -9 9 -24 5 -15 -4 -28
0 -36 9 -10 12 -9 15 4 15 13 0 16 5 11 20 -6 17 -2 20 29 20 20 0 36 5 36 11
0 5 5 7 10 4 6 -4 7 -11 4 -17 -4 -7 -2 -8 4 -4 7 4 12 14 12 22 0 18 5 18 36
-2 19 -13 28 -14 37 -5 8 8 7 11 -4 11 -9 0 -24 9 -33 19 -10 11 -30 21 -45
23 -14 2 -25 8 -25 13 2 13 -2 16 -168 113 -99 58 -169 153 -197 267 -25 100
-8 324 40 525 25 105 46 220 60 325 10 74 12 321 4 390 -2 17 -6 59 -10 95 -9
104 -17 150 -26 155 -4 3 -5 16 0 28 15 39 -4 134 -29 147 -44 24 -131 32
-350 34 -130 1 -278 -3 -332 -10z"/>
</g>
</svg>
